<?xml version="1.0" standalone="no"?>
<!DOCTYPE svg PUBLIC "-//W3C//DTD SVG 20010904//EN"
 "http://www.w3.org/TR/2001/REC-SVG-20010904/DTD/svg10.dtd">
<svg version="1.0" xmlns="http://www.w3.org/2000/svg"
 width="512.000000pt" height="512.000000pt" viewBox="0 0 512.000000 512.000000"
 preserveAspectRatio="xMidYMid meet">
<metadata>
Created by potrace 1.14, written by Peter Selinger 2001-2017
</metadata>
<g transform="translate(0.000000,512.000000) scale(0.100000,-0.100000)"
fill="#000000" stroke="none">
<path d="M0 2560 l0 -2560 2560 0 2560 0 0 2560 0 2560 -2560 0 -2560 0 0
-2560z m3110 1448 c295 -179 587 -358 650 -398 l115 -72 -2 -72 c-2 -39 -4
-392 -6 -783 -2 -392 -5 -715 -8 -717 -2 -3 -20 -8 -38 -11 -19 -3 -39 -9 -44
-12 -6 -3 -7 -1 -3 5 5 8 -4 12 -26 12 -19 0 -39 5 -45 11 -6 6 -19 12 -29 14
-11 2 -21 4 -24 5 -3 1 -18 1 -34 0 -18 -1 -26 2 -22 9 4 6 1 11 -8 11 -8 0
-17 -6 -19 -12 -3 -7 -6 6 -6 30 -1 28 -5 41 -12 37 -31 -20 -95 26 -97 70 -1
17 -4 39 -6 50 -3 11 -5 255 -5 541 l-1 521 -107 70 c-352 230 -740 473 -755
473 -5 0 -142 -80 -304 -177 -230 -138 -292 -179 -282 -188 7 -6 99 -64 203
-127 756 -460 939 -574 981 -611 l34 -29 0 -217 0 -218 108 -63 c59 -35 129
-75 155 -89 57 -30 68 -18 -120 -133 l-133 -81 0 -261 0 -261 -118 -74 c-64
-41 -205 -129 -312 -194 -107 -66 -207 -128 -221 -138 -14 -10 -29 -16 -33
-12 -3 3 -6 97 -6 209 0 201 0 203 25 232 13 16 38 35 55 42 16 7 30 16 30 20
0 4 -16 20 -35 34 l-35 27 0 264 0 263 -148 96 c-82 52 -270 169 -418 259
-273 167 -511 315 -674 419 l-90 58 2 347 3 347 265 166 c146 91 326 202 400
247 74 46 248 152 385 237 138 85 257 154 265 152 8 -2 256 -149 550 -328z"/>
<path d="M3575 2030 c-3 -5 -2 -10 4 -10 5 0 13 5 16 10 3 6 2 10 -4 10 -5 0
-13 -4 -16 -10z"/>
</g>
</svg>
